<svg width="66" height="67" viewBox="0 0 66 67" fill="none" xmlns="http://www.w3.org/2000/svg">
<g clip-path="url(#clip0_68_7147)">
<path fill-rule="evenodd" clip-rule="evenodd" d="M31.8829 3.17348C30.8137 3.05075 29.7367 3.32551 28.857 3.94547C27.9774 4.56542 27.3564 5.48725 27.1124 6.53542C26.9651 7.16803 26.3329 7.56149 25.7004 7.41422C25.0677 7.26696 24.6743 6.63475 24.8215 6.00213C25.1964 4.39168 26.1505 2.97534 27.5021 2.02282C28.8536 1.07029 30.5084 0.64812 32.1511 0.836693C33.7938 1.02526 35.3098 1.81141 36.4105 3.04543C37.5111 4.27944 38.1194 5.87513 38.1195 7.52866V15.8994L42.574 15.8995L45.002 13.4716L45.3465 13.1272H45.8336H55.7591C56.2628 11.5436 57.7452 10.3963 59.4957 10.3963C61.6607 10.3963 63.4159 12.1515 63.4159 14.3166C63.4159 16.4816 61.6607 18.2367 59.4957 18.2367C57.7354 18.2367 56.2462 17.0766 55.7508 15.4793H46.3207L43.8927 17.9072L43.5482 18.2517H43.0611L36.9435 18.2515H35.7674V17.0754V7.52896C35.7673 6.45281 35.3713 5.41416 34.655 4.61103C33.9387 3.80786 32.952 3.29621 31.8829 3.17348ZM15.8365 8.23752C16.8606 7.81338 17.9581 7.59506 19.0665 7.59506C20.1748 7.59506 21.2724 7.81338 22.2963 8.23752C23.3203 8.66167 24.2507 9.28337 25.0345 10.0671C25.8182 10.8508 26.4399 11.7812 26.8639 12.8053C27.2881 13.8292 27.5064 14.9268 27.5064 16.0351C27.5064 16.6846 26.9799 17.2112 26.3303 17.2112C25.6808 17.2112 25.1543 16.6846 25.1543 16.0351C25.1543 15.2357 24.9968 14.444 24.6909 13.7053C24.3849 12.9667 23.9365 12.2956 23.3712 11.7303C22.8059 11.165 22.1347 10.7166 21.3962 10.4106C20.6576 10.1047 19.8659 9.94719 19.0665 9.94719C18.267 9.94719 17.4754 10.1047 16.7367 10.4106C15.9981 10.7166 15.327 11.165 14.7617 11.7303C14.1964 12.2956 13.7479 12.9667 13.4421 13.7053C13.1365 14.4428 12.9791 15.2331 12.9786 16.0313C12.9853 16.9768 13.2148 17.9072 13.6487 18.7473C13.8092 19.058 13.8232 19.4242 13.6866 19.7462C13.5501 20.0682 13.2772 20.3127 12.9422 20.4134C11.546 20.8328 10.3475 21.741 9.56597 22.9717C8.78442 24.2023 8.47205 25.6732 8.68602 27.1153C8.9 28.5574 9.62602 29.8742 10.7312 30.8249C11.8365 31.7756 13.247 32.2966 14.7048 32.2925C15.3544 32.2908 15.8824 32.8159 15.8842 33.4654C15.8859 34.115 15.3609 34.6429 14.7114 34.6447C12.6884 34.6503 10.731 33.9273 9.19738 32.6081C8.74487 32.2188 8.33817 31.7854 7.98201 31.3162C7.06745 32.1383 6.34273 33.1516 5.86027 34.2858C5.33235 35.5269 5.10995 36.8766 5.21176 38.2214C5.31356 39.5663 5.73661 40.8671 6.44535 42.0146C7.1541 43.1622 8.12784 44.1228 9.28482 44.816C10.4418 45.5091 11.7482 45.9146 13.0943 45.9981C14.4405 46.0818 15.7869 45.8411 17.0208 45.2964C18.2547 44.7517 19.3398 43.919 20.1851 42.8679C21.0065 41.8465 21.5781 40.6481 21.8552 39.368V39.0151C21.8552 38.3656 22.3817 37.839 23.0312 37.839C23.6808 37.839 24.2073 38.3656 24.2073 39.0151V39.4897V39.6074L24.1839 39.7229C23.8419 41.4137 23.0991 42.9978 22.0179 44.3421C20.9368 45.6863 19.5489 46.7516 17.9707 47.4482C16.3926 48.1449 14.6703 48.4526 12.9485 48.3458C12.4369 48.314 11.9298 48.2459 11.4308 48.1426C11.0004 49.0782 10.7733 50.0958 10.7662 51.1282C10.7665 52.4672 11.1324 53.7809 11.8245 54.9273C12.5173 56.0747 13.5105 57.0108 14.6968 57.6347C15.2716 57.9371 15.4925 58.6482 15.1903 59.223C14.888 59.7979 14.1769 60.0188 13.602 59.7166C12.0362 58.8932 10.7253 57.6574 9.81093 56.143C8.89658 54.6285 8.41357 52.8929 8.4141 51.1239V51.1167C8.42225 49.8408 8.68421 48.5818 9.18211 47.4122C8.80352 47.2414 8.43415 47.0483 8.07598 46.8337C6.59615 45.9471 5.35067 44.7184 4.44415 43.2507C3.53764 41.783 2.99655 40.1192 2.86633 38.399C2.73611 36.6789 3.02058 34.9525 3.69583 33.3651C4.37107 31.7777 5.41739 30.3755 6.74689 29.2761C6.77049 29.2566 6.79464 29.2382 6.81926 29.2208C6.60426 28.6562 6.44925 28.0663 6.35937 27.4605C6.06246 25.4594 6.49589 23.4184 7.58041 21.7106C8.43119 20.371 9.63803 19.3068 11.054 18.6293C10.7772 17.7975 10.6321 16.9246 10.6265 16.0426L10.6265 16.0351C10.6265 14.9268 10.8448 13.8292 11.2689 12.8053C11.6931 11.7812 12.3148 10.8508 13.0985 10.0671C13.8823 9.28337 14.8126 8.66167 15.8365 8.23752ZM28.8422 21.3895C28.7788 21.3789 28.7137 21.3734 28.6474 21.3734C27.9978 21.3734 27.4713 21.9 27.4713 22.5495C27.4713 24.057 26.8724 25.5029 25.8065 26.5689C24.7404 27.635 23.2946 28.2338 21.7871 28.2338C21.1376 28.2338 20.611 28.7604 20.611 29.4099C20.611 30.0594 21.1376 30.586 21.7871 30.586C23.9184 30.586 25.9626 29.7393 27.4697 28.2322C28.6929 27.0088 29.4811 25.4319 29.7346 23.7416H44.4323H44.9193L45.2638 23.3973L48.0367 20.6257C48.4961 20.1666 48.4963 19.4219 48.0372 18.9626C47.5779 18.5032 46.8334 18.5029 46.3739 18.9621L43.9454 21.3895H28.8422ZM48.0917 24.105H48.5787H55.7587C56.262 22.5207 57.7448 21.3728 59.4957 21.3728C61.6607 21.3728 63.4159 23.128 63.4159 25.2931C63.4159 27.4582 61.6607 29.2133 59.4957 29.2133C57.7359 29.2133 56.2469 28.0537 55.7511 26.4571H49.0657L46.6371 28.8844L46.2927 29.2288H45.8057H37.5733C36.9238 29.2288 36.3973 28.7022 36.3973 28.0527C36.3973 27.4032 36.9238 26.8766 37.5733 26.8766H45.3187L47.7472 24.4493L48.0917 24.105ZM36.7689 43.3156C36.1194 43.3156 35.5928 43.8421 35.5928 44.4916C35.5928 45.1411 36.1194 45.6677 36.7689 45.6677H43.9422L46.3707 48.0951C46.8301 48.5542 47.5747 48.5541 48.0339 48.0947C48.493 47.6353 48.4928 46.8907 48.0334 46.4314L45.2605 43.6598L44.916 43.3156H44.4292H36.7689ZM35.5928 39.0034C35.5928 38.3539 36.1194 37.8273 36.7689 37.8273H45.8012H46.2881L46.6326 38.1716L49.0611 40.5989H55.75C56.2445 39.0002 57.7345 37.8388 59.4957 37.8388C61.6607 37.8388 63.4159 39.5939 63.4159 41.759C63.4159 43.9241 61.6607 45.6793 59.4957 45.6793C57.7463 45.6793 56.2645 44.5333 55.76 42.9511H48.5741H48.0871L47.7428 42.6068L45.3142 40.1795H36.7689C36.1194 40.1795 35.5928 39.6529 35.5928 39.0034ZM44.6853 49.2716L44.3325 48.8027H43.7456L36.9419 48.8028H35.7659V49.9789V58.2829C35.7659 59.7905 35.167 61.2363 34.1011 62.3024C33.035 63.3683 31.5892 63.9673 30.0817 63.9673C28.5741 63.9673 27.1282 63.3683 26.0623 62.3024C24.9963 61.2363 24.3973 59.7905 24.3973 58.2829C24.3973 57.6333 23.8708 57.1068 23.2213 57.1068C22.5717 57.1068 22.0452 57.6333 22.0452 58.2829C22.0452 60.4143 22.8919 62.4585 24.3991 63.9656C25.9062 65.4726 27.9502 66.3194 30.0817 66.3194C32.213 66.3194 34.2572 65.4726 35.7642 63.9656C37.2713 62.4585 38.118 60.4143 38.118 58.2829V51.155L43.1588 51.1549L44.8923 53.4584L45.2452 53.9273H45.832H55.7603C56.2649 55.509 57.7465 56.6547 59.4957 56.6547C61.6607 56.6547 63.4159 54.8994 63.4159 52.7344C63.4159 50.5693 61.6607 48.8142 59.4957 48.8142C57.7341 48.8142 56.244 49.976 55.7497 51.5752H46.4188L44.6853 49.2716ZM36.9412 32.351C36.2917 32.351 35.7652 32.8776 35.7652 33.5271C35.7652 34.1766 36.2917 34.7032 36.9412 34.7032H51.9768C52.6263 34.7032 53.1528 34.1766 53.1528 33.5271C53.1528 32.8776 52.6263 32.351 51.9768 32.351H36.9412ZM17.6743 29.4107C18.4321 29.4107 19.0464 28.7964 19.0464 28.0387C19.0464 27.2808 18.4321 26.6665 17.6743 26.6665C16.9165 26.6665 16.3022 27.2808 16.3022 28.0387C16.3022 28.7964 16.9165 29.4107 17.6743 29.4107ZM20.1342 60.2814C20.1342 61.0393 19.5199 61.6536 18.7621 61.6536C18.0044 61.6536 17.3901 61.0393 17.3901 60.2814C17.3901 59.5236 18.0044 58.9093 18.7621 58.9093C19.5199 58.9093 20.1342 59.5236 20.1342 60.2814ZM59.4957 12.7485C58.6297 12.7485 57.9276 13.4505 57.9276 14.3166C57.9276 15.1827 58.6297 15.8846 59.4957 15.8846C60.3617 15.8846 61.0637 15.1827 61.0637 14.3166C61.0637 13.4505 60.3617 12.7485 59.4957 12.7485ZM57.9276 25.2931C57.9276 24.427 58.6297 23.725 59.4957 23.725C60.3617 23.725 61.0637 24.427 61.0637 25.2931C61.0637 26.1591 60.3617 26.8612 59.4957 26.8612C58.6297 26.8612 57.9276 26.1591 57.9276 25.2931ZM59.4957 40.1909C58.6297 40.1909 57.9276 40.893 57.9276 41.759C57.9276 42.6251 58.6297 43.3271 59.4957 43.3271C60.3617 43.3271 61.0637 42.6251 61.0637 41.759C61.0637 40.893 60.3617 40.1909 59.4957 40.1909ZM57.9276 52.7344C57.9276 51.8683 58.6297 51.1663 59.4957 51.1663C60.3617 51.1663 61.0637 51.8683 61.0637 52.7344C61.0637 53.6005 60.3617 54.3025 59.4957 54.3025C58.6297 54.3025 57.9276 53.6005 57.9276 52.7344Z" fill="white"/>
</g>
<defs>
<clipPath id="clip0_68_7147">
<rect width="65.5255" height="65.5255" fill="white" transform="translate(0.362793 0.793945)"/>
</clipPath>
</defs>
</svg>
