<svg width="66" height="67" viewBox="0 0 66 67" fill="none" xmlns="http://www.w3.org/2000/svg">
<g clip-path="url(#clip0_68_7131)">
<path fill-rule="evenodd" clip-rule="evenodd" d="M44.5365 5.07463C44.5365 3.34527 45.9386 1.94336 47.6679 1.94336H62.6578C64.3872 1.94336 65.7891 3.34528 65.7891 5.07463V34.8893V44.996H63.5693V35.9992H47.6679C45.9386 35.9992 44.5365 34.5973 44.5365 32.8679V22.9273L33.7073 33.8308V46.5119C33.7073 47.0153 34.1154 47.4234 34.6188 47.4234H55.1687C55.6721 47.4234 56.0801 47.0153 56.0801 46.5119V39.9426H58.3V46.5119C58.3 48.2413 56.8981 49.6432 55.1687 49.6432H34.6188C32.8893 49.6432 31.4874 48.2413 31.4874 46.5119V36.0659L24.2794 43.3235C23.0548 44.5564 21.0605 44.5564 19.836 43.3235L15.6779 39.1368C15.3214 38.778 14.741 38.778 14.3845 39.1368L9.88699 43.6651C9.29916 44.2571 8.49948 44.5899 7.6653 44.5899H4.54447C2.81512 44.5899 1.41321 43.188 1.41321 41.4587V10.6333C1.41321 8.90394 2.81512 7.50203 4.54447 7.50203H28.5822V9.72189H4.54447C4.04111 9.72189 3.63306 10.1299 3.63306 10.6333V41.4587C3.63306 41.9621 4.04111 42.37 4.54447 42.37H7.6653C7.9081 42.37 8.14087 42.2731 8.31196 42.1009L12.8095 37.5725C14.034 36.3395 16.0284 36.3395 17.2529 37.5725L21.411 41.7592C21.7674 42.118 22.3479 42.118 22.7043 41.7592L31.4874 32.9157V10.6333C31.4874 8.90394 32.8893 7.50203 34.6188 7.50203H41.6314V9.72189H34.6188C34.1154 9.72189 33.7073 10.1299 33.7073 10.6333V30.6806L44.5365 19.7771V5.07463ZM46.7565 20.6921V32.8679C46.7565 33.3713 47.1645 33.7794 47.6679 33.7794H63.5693V5.07463C63.5693 4.57126 63.1612 4.16321 62.6578 4.16321H47.6679C47.1645 4.16321 46.7565 4.57126 46.7565 5.07463V17.542L54.5233 9.72189H51.6693V7.50203H57.19H58.3V8.61195V14.1706H56.0801V11.3046L46.7565 20.6921ZM4.54447 49.6432C4.04111 49.6432 3.63306 50.0513 3.63306 50.5546V53.0813C3.63306 53.5847 4.04111 53.9928 4.54447 53.9928H27.0765H39.6239H62.6578C63.1612 53.9928 63.5693 53.5847 63.5693 53.0813V48.5333H65.7891V53.0813C65.7891 54.8107 64.3872 56.2126 62.6578 56.2126H41.1127L43.4626 64.0994H45.6466V66.3192H42.6352H24.5671H21.5557V64.0994H23.6991L25.6574 56.2126H4.54447C2.81512 56.2126 1.41321 54.8107 1.41321 53.0813V50.5546C1.41321 48.8253 2.81512 47.4234 4.54447 47.4234H27.0765V49.6432H4.54447ZM27.9446 56.2126L25.9863 64.0994H41.1463L38.7964 56.2126H27.9446ZM46.2262 43.3585C46.2262 44.1631 45.574 44.8153 44.7694 44.8153C43.9649 44.8153 43.3126 44.1631 43.3126 43.3585C43.3126 42.554 43.9649 41.9018 44.7694 41.9018C45.574 41.9018 46.2262 42.554 46.2262 43.3585ZM54.9667 31.2179C55.5031 31.2179 55.938 30.7832 55.938 30.2468C55.938 29.7104 55.5031 29.2756 54.9667 29.2756C54.4304 29.2756 53.9955 29.7104 53.9955 30.2468C53.9955 30.7832 54.4304 31.2179 54.9667 31.2179Z" fill="white"/>
</g>
<defs>
<clipPath id="clip0_68_7131">
<rect width="65.5255" height="65.5255" fill="white" transform="translate(0.263672 0.793945)"/>
</clipPath>
</defs>
</svg>
