<svg width="66" height="67" viewBox="0 0 66 67" fill="none" xmlns="http://www.w3.org/2000/svg">
<g clip-path="url(#clip0_68_7115)">
<path fill-rule="evenodd" clip-rule="evenodd" d="M43.7481 1.96202C43.7529 2.61454 43.2279 3.14746 42.5753 3.15231L29.786 3.24764L29.783 3.24768C23.3727 3.32997 17.4828 5.44518 13.7509 10.3167C12.417 12.2489 11.1903 14.2521 10.0767 16.3172C7.93758 21.0274 7.74893 26.3832 9.55187 31.2305L15.0718 45.371C15.1253 45.5079 15.1527 45.6535 15.1527 45.8006V48.8533H19.3824L23.2369 46.3029C23.7811 45.9428 24.5141 46.0921 24.8742 46.6363C25.2343 47.1805 25.085 47.9136 24.5408 48.2736L20.3899 51.0201L20.0934 51.2163H19.7379H14.641L10.1061 57.1124L18.3841 64.2465C18.8785 64.6724 18.9338 65.4185 18.5078 65.9128C18.0819 66.4071 17.3358 66.4624 16.8415 66.0365L8.66318 58.9884L3.37734 65.8609C2.97952 66.3782 2.2377 66.475 1.72047 66.0771C1.20323 65.6793 1.10643 64.9374 1.50425 64.4203L12.7896 49.7474V46.0231L7.34722 32.0811L7.34065 32.0639C5.31115 26.6152 5.52767 20.5918 7.94297 15.3009C7.95372 15.2773 7.96524 15.2541 7.97752 15.2312C9.14199 13.0689 10.4258 10.9719 11.8229 8.94996C11.8336 8.93461 11.8446 8.91951 11.8559 8.90468C16.1637 3.26203 22.8663 0.972531 29.7559 0.88479L29.7623 0.884727L42.5577 0.78934C43.2103 0.784476 43.7432 1.3095 43.7481 1.96202ZM54.1285 25.3169C54.1285 24.6645 53.5995 24.1355 52.9469 24.1355L52.9261 24.1356L52.9053 24.1355H47.7166C47.064 24.1355 46.5351 24.6645 46.5351 25.3169C46.5351 25.9695 47.064 26.4985 47.7166 26.4985H51.7655V28.9697L48.3704 30.2803C47.7618 30.5154 47.4588 31.1994 47.6938 31.8081C47.9288 32.4169 48.6129 32.7199 49.2216 32.4848L53.3725 30.8822L54.1285 30.5904V29.78V25.3169ZM57.1698 53.7682C57.714 53.4081 57.8632 52.6751 57.5032 52.1309C57.1431 51.5866 56.4101 51.4373 55.8659 51.7975L54.8281 52.4841L54.2985 52.8344V53.4694V57.8909C54.2985 58.1608 54.245 58.4282 54.1408 58.678C54.0365 58.9278 53.8835 59.1554 53.6899 59.3475C53.4963 59.5396 53.266 59.6925 53.012 59.797C52.7578 59.9014 52.4852 59.9553 52.2096 59.9553H41.2436C41.2244 59.9544 41.2051 59.9539 41.1857 59.9539H37.891C35.9867 59.9539 34.1622 59.2029 32.8183 57.8692C31.4747 56.5357 30.7215 54.7291 30.7215 52.8472V47.0595C30.7215 46.407 30.1926 45.878 29.5401 45.878C28.8875 45.878 28.3585 46.407 28.3585 47.0595V52.8472C28.3585 55.3616 29.365 57.7712 31.1536 59.5465C32.942 61.3214 35.3657 62.3169 37.891 62.3169H38.5456L36.7265 64.3554C36.292 64.8423 36.3343 65.5892 36.8212 66.0237C37.3081 66.4581 38.055 66.4156 38.4896 65.9288L41.7115 62.3183H52.2096C52.7931 62.3183 53.371 62.2042 53.9104 61.9825C54.4499 61.7608 54.9407 61.4354 55.3545 61.0248C55.7683 60.6139 56.0971 60.1259 56.3215 59.5881C56.5459 59.0503 56.6616 58.4736 56.6616 57.8909V54.1045L57.1698 53.7682ZM52.5592 1.57666C51.9618 1.31398 51.2647 1.58528 51.002 2.18261C50.7393 2.77994 51.0106 3.47711 51.608 3.73978C52.698 4.21916 53.8635 4.49402 55.0455 4.55519C54.8427 5.24166 54.4688 5.87429 53.9486 6.39039C53.133 7.19996 52.0249 7.65635 50.8674 7.65635H48.8216C48.4229 7.43225 48.0074 7.23625 47.5778 7.07034L45.7639 6.36433C45.1558 6.12764 44.471 6.42873 44.2343 7.03683C43.9977 7.64493 44.2987 8.32976 44.9068 8.56645L46.7221 9.27301L46.7252 9.27416C47.0934 9.41635 47.4479 9.58782 47.7855 9.78628C47.8442 9.82998 47.9072 9.86837 47.9735 9.90071C48.5481 10.2625 49.0698 10.7042 49.5221 11.214C52.8 14.9633 55.1348 19.4298 56.3356 24.2468L56.91 26.5511L55.7898 30.3632L55.6473 30.8484L55.8998 31.2865L60.9897 40.1144C61.0346 40.2128 61.059 40.3188 61.0616 40.4264C61.0645 40.543 61.0415 40.6592 60.9943 40.7669C60.9469 40.8744 60.8762 40.9713 60.7863 41.0501C60.7056 41.1209 60.6113 41.1757 60.5086 41.2109L58.1643 41.7026L58.1181 41.7123L58.0728 41.7256C57.464 41.905 56.9435 42.3071 56.618 42.8539C56.2924 43.401 56.1867 44.0513 56.3237 44.6736L56.7864 46.7771L56.0768 47.1494C53.9885 48.2452 51.6285 48.7152 49.2797 48.5033L47.517 48.3443C46.8671 48.2857 46.2927 48.7649 46.2341 49.4148C46.1755 50.0647 46.6547 50.6391 47.3047 50.6977L49.0674 50.8567C51.8689 51.1096 54.6839 50.5489 57.1747 49.2419L58.6831 48.4504L59.4818 48.0314L59.288 47.1503L58.6315 44.166C58.6239 44.1312 58.6295 44.0945 58.6486 44.0626C58.6639 44.0368 58.6878 44.0148 58.7176 44.001L61.0497 43.5119L61.096 43.5022L61.1411 43.4889C61.5856 43.3579 61.9966 43.132 62.3449 42.8262C62.6934 42.5205 62.9709 42.1423 63.1575 41.7177C63.3442 41.2932 63.4352 40.8329 63.424 40.369C63.4127 39.9053 63.2995 39.45 63.0926 39.0349L63.0766 39.0029L63.0587 38.9719L58.1996 30.5443L59.2677 26.9098L59.3581 26.602L59.2805 26.2908L58.6285 23.6752C57.3709 18.6308 54.9579 13.9452 51.58 9.98174C53.0968 9.82095 54.5226 9.15018 55.6133 8.06761C56.8738 6.81659 57.5836 5.11794 57.5836 3.34485C57.5836 3.01125 57.4426 2.69319 57.1953 2.46922C56.9481 2.24524 56.6176 2.13622 56.2857 2.16907C55.0125 2.29507 53.7283 2.09079 52.5592 1.57666ZM46.2247 19.2003C46.5695 19.7544 46.4 20.483 45.846 20.8278L41.4174 23.5841C40.8598 23.9312 40.4013 24.4123 40.0838 24.9819C39.7664 25.5513 39.6002 26.1908 39.6002 26.8405V33.0995C39.6002 33.752 39.0712 34.281 38.4186 34.281C37.7662 34.281 37.2372 33.752 37.2372 33.0995V26.8405C37.2372 25.7874 37.5067 24.7519 38.0199 23.8313C38.533 22.9108 39.2726 22.1356 40.1688 21.578L44.5973 18.8216C45.1513 18.4767 45.8799 18.6464 46.2247 19.2003ZM24.8065 30.3608C25.525 29.6479 26.5012 29.2457 27.5209 29.2457C28.5407 29.2457 29.5169 29.6479 30.2352 30.3608C30.9533 31.0735 31.3551 32.0383 31.3551 33.0422C31.3551 33.6948 31.8841 34.2238 32.5367 34.2238C33.1892 34.2238 33.7181 33.6948 33.7181 33.0422C33.7181 31.4057 33.0631 29.8382 31.8999 28.6836C30.737 27.5296 29.1617 26.8827 27.5209 26.8827C25.8802 26.8827 24.3048 27.5296 23.142 28.6836C21.9788 29.8382 21.3236 31.4057 21.3236 33.0422L21.3238 33.0559C21.3529 35.5815 22.3371 38.0024 24.0789 39.8391C25.8204 41.6757 28.192 42.7941 30.7227 42.9753C31.3736 43.0219 31.939 42.5321 31.9856 41.8811C32.0323 41.2303 31.5423 40.6648 30.8915 40.6183C28.9467 40.479 27.1273 39.6196 25.7935 38.2131C24.4616 36.8085 23.7108 34.9608 23.6868 33.0357C23.6885 32.0341 24.0901 31.072 24.8065 30.3608ZM43.4565 14.3932C43.8013 14.9471 43.6318 15.6758 43.0777 16.0206L38.6493 18.777C38.0952 19.1218 37.3666 18.9522 37.0218 18.3982C36.677 17.8442 36.8466 17.1156 37.4005 16.7707L41.8291 14.0145C42.3832 13.6696 43.1118 13.8392 43.4565 14.3932ZM40.312 11.2135C40.866 10.8687 41.0356 10.14 40.6907 9.58602C40.346 9.03203 39.6174 8.86246 39.0634 9.20726L34.6348 11.9636C34.0809 12.3084 33.9113 13.0371 34.256 13.591C34.6008 14.145 35.3295 14.3146 35.8835 13.9698L40.312 11.2135ZM47.4093 4.03225C48.1735 4.03225 48.793 3.41742 48.793 2.65899C48.793 1.90056 48.1735 1.28573 47.4093 1.28573C46.6451 1.28573 46.0257 1.90056 46.0257 2.65899C46.0257 3.41742 46.6451 4.03225 47.4093 4.03225Z" fill="white"/>
</g>
<defs>
<clipPath id="clip0_68_7115">
<rect width="65.5255" height="65.5255" fill="white" transform="translate(0.164551 0.793945)"/>
</clipPath>
</defs>
</svg>
