<svg width="43" height="43" viewBox="0 0 43 43" fill="none" xmlns="http://www.w3.org/2000/svg">
<g clip-path="url(#clip0_121_1206)">
<path d="M21.9554 6.53289C21.4209 7.27831 20.9782 8.09557 20.6446 8.96893L10.5523 8.44072C8.94372 8.35642 7.57133 9.59212 7.48703 11.2007L6.7456 25.348C6.6613 26.9566 7.897 28.329 9.50562 28.4133L13.2485 28.6095L12.9231 34.852L21.5949 29.0469L31.9748 29.5909C33.5834 29.6752 34.9558 28.4394 35.0401 26.8309L35.2585 22.6986C36.2004 22.2686 37.072 21.7069 37.8486 21.0359L37.5366 26.9617C37.3801 29.9491 34.8314 32.244 31.844 32.0875L22.2946 31.587L13.6225 37.3922C12.6663 38.0322 11.3723 37.7759 10.7324 36.8197C10.4822 36.4458 10.3597 36.001 10.3832 35.5522L10.6218 30.9753L9.37478 30.9099C6.38733 30.7534 4.09247 28.2046 4.24903 25.2172L4.99046 11.0699C5.14702 8.08246 7.69573 5.78758 10.6832 5.94415L21.9554 6.53289Z" fill="white" fill-opacity="0.64"/>
<path d="M31.2462 3.68392C36.3018 3.94888 40.1854 8.26209 39.9205 13.3178C39.6555 18.3734 35.3423 22.2571 30.2867 21.9921C25.2309 21.7272 21.3473 17.4139 21.6123 12.3583C21.8773 7.3026 26.1904 3.41896 31.2462 3.68392ZM35.3765 9.15163L28.2082 15.6059L26.4215 12.9441C26.1651 12.5619 25.6473 12.4601 25.2653 12.7165C24.8831 12.9731 24.7812 13.4908 25.0377 13.8729L27.3598 17.3325C27.6425 17.7536 28.2325 17.8267 28.6094 17.4874L36.4917 10.3902C36.8336 10.0822 36.8612 9.55532 36.5534 9.21331C36.2453 8.87127 35.7184 8.84365 35.3765 9.15163Z" fill="white"/>
</g>
<defs>
<clipPath id="clip0_121_1206">
<rect width="40.0046" height="40.0046" fill="white" transform="translate(2.20715 0.493015) rotate(3)"/>
</clipPath>
</defs>
</svg>
