<svg width="42" height="42" viewBox="0 0 42 42" fill="none" xmlns="http://www.w3.org/2000/svg">
<g clip-path="url(#clip0_121_1219)">
<path d="M15.1061 10.2775C15.0504 10.0247 15.0147 9.76406 15.0007 9.49707C14.8632 6.87317 16.8787 4.63459 19.5027 4.49707C22.1267 4.35955 24.3652 6.37519 24.5027 8.99909C24.5167 9.26692 24.5083 9.53072 24.4792 9.78868L28.2547 8.15035C30.2041 7.30446 32.4657 8.25051 33.2322 10.2325C33.928 12.0321 33.1409 14.0658 31.4146 14.9278L26.5293 17.3676L26.599 18.697C25.7735 18.9383 24.9927 19.2793 24.2698 19.7056L24.113 16.7139C24.0882 16.2414 24.3459 15.799 24.7694 15.5876L30.3519 12.7997C30.9803 12.4859 31.267 11.7456 31.0134 11.0905C30.7344 10.369 29.9113 10.0246 29.2017 10.3325L21.7788 13.5535C21.2363 13.8091 20.6364 13.9658 20.0007 13.9991C19.3428 14.0336 18.7091 13.9327 18.1268 13.7208L10.2278 11.2372C9.54548 11.0227 8.81442 11.3787 8.5625 12.0481C8.30082 12.7434 8.65128 13.5193 9.34594 13.7826L15.4291 16.0889C15.8699 16.2561 16.1705 16.6679 16.1952 17.1389L16.5051 23.0533C16.5121 23.1851 16.4969 23.3172 16.4604 23.444L13.8777 32.4291C13.688 33.0891 14.0442 33.7826 14.6911 34.0129C15.389 34.2612 16.1531 33.8772 16.3701 33.1689L18.6073 25.8635C18.8436 25.0916 19.4166 24.6079 20.0677 24.4266C19.4338 25.8593 19.1181 27.4589 19.2057 29.1305C19.2409 29.8023 19.3395 30.4558 19.496 31.0853L18.6445 33.8654C18.0307 35.8698 15.8684 36.9568 13.8934 36.2539C12.0629 35.6023 11.0547 33.6394 11.5915 31.7719L14.1192 22.9785L13.8603 18.0381L8.50266 16.0069C6.58168 15.2787 5.61257 13.1329 6.33618 11.2102C7.03284 9.35906 9.05444 8.37475 10.9413 8.96801L15.1061 10.2775ZM17.3762 9.37257C17.4271 10.344 18.0539 11.1486 18.9085 11.473C19.5265 11.6652 20.1917 11.6353 20.7894 11.3893C21.6239 10.9843 22.1788 10.1082 22.1272 9.12358C22.0585 7.81164 20.9391 6.80382 19.6272 6.87258C18.3153 6.94133 17.3074 8.06064 17.3762 9.37257Z" fill="white" fill-opacity="0.64"/>
<path d="M38.2097 28.1346C38.4618 32.9452 34.7666 37.0491 29.956 37.3012C25.1455 37.5533 21.0415 33.8582 20.7894 29.0476C20.5373 24.2371 24.2325 20.133 29.043 19.8809C33.8536 19.6288 37.9575 23.3241 38.2097 28.1346ZM34.6152 24.5855C34.2897 24.2925 33.7883 24.3188 33.4952 24.6442L28.0232 30.7216L25.2791 28.2508C24.9536 27.9578 24.4522 27.9841 24.1592 28.3095C23.8663 28.635 23.8926 29.1363 24.2178 29.4295L27.5512 32.4308C27.8767 32.7237 28.3781 32.6974 28.6712 32.3721L34.6739 25.7054C34.9668 25.3799 34.9406 24.8785 34.6152 24.5855Z" fill="white"/>
</g>
<defs>
<clipPath id="clip0_121_1219">
<rect width="39.0034" height="38.9934" fill="white" transform="translate(0.332764 2.33247) rotate(-3)"/>
</clipPath>
</defs>
</svg>
