<svg width="43" height="43" viewBox="0 0 43 43" fill="none" xmlns="http://www.w3.org/2000/svg">
<g clip-path="url(#clip0_121_984)">
<path d="M11.8267 35.8323L15.3841 24.2223L11.1501 24.0004C10.3207 23.957 9.7636 23.1319 10.0332 22.3464L15.9421 5.13196C16.1234 4.60409 16.6324 4.2603 17.1898 4.28951L28.8402 4.90008C29.6922 4.94473 30.2501 5.81098 29.9383 6.60516L26.72 14.8027L34.142 15.1917C35.2416 15.2493 35.7349 16.5979 34.9319 17.3515L31.9702 20.131C31.6409 20.0832 31.3065 20.0499 30.9679 20.0322C30.0178 19.9824 29.09 20.0566 28.2 20.2406L31.0833 17.5348L24.8573 17.2085C24.0052 17.1638 23.4475 16.2976 23.7593 15.5034L26.9775 7.30589L18.0005 6.83543L12.9358 21.5906L17.1137 21.8095C17.9258 21.8521 18.4817 22.6465 18.2434 23.4241L15.5941 32.0704L19.9526 27.9803C19.7507 28.718 19.6242 29.4886 19.5825 30.2837C19.5568 30.7747 19.5642 31.2599 19.6027 31.7369L13.8771 37.1099C12.9428 37.9867 11.4513 37.0574 11.8267 35.8323Z" fill="white" fill-opacity="0.64"/>
<path d="M29.921 40.0046C34.9764 40.2695 39.2895 36.3859 39.5545 31.3302C39.8195 26.2745 35.9359 21.9613 30.8805 21.6964C25.8249 21.4314 21.5118 25.315 21.2468 30.3708C20.9819 35.4264 24.8654 39.7396 29.921 40.0046ZM36.1257 28.4028L29.1194 34.7113C28.7776 35.0193 28.2506 34.9917 27.9426 34.6497L24.7884 31.1465C24.4804 30.8044 24.508 30.2774 24.8501 29.9694C25.192 29.6616 25.7189 29.6892 26.0269 30.0311L28.6236 32.9151L35.0105 27.164C35.3526 26.8562 35.8796 26.8838 36.1874 27.2257C36.4954 27.5678 36.4678 28.0948 36.1257 28.4028Z" fill="white"/>
</g>
<defs>
<clipPath id="clip0_121_984">
<rect width="40.0046" height="39.9946" fill="white" transform="translate(2.80054 0.200001) rotate(3)"/>
</clipPath>
</defs>
</svg>
